<?xml version="1.0" encoding="utf-8"?>
<!-- Generator: Adobe Illustrator 26.0.1, SVG Export Plug-In . SVG Version: 6.00 Build 0)  -->
<svg version="1.1" id="Layer_1" xmlns="http://www.w3.org/2000/svg" xmlns:xlink="http://www.w3.org/1999/xlink" x="0px" y="0px"
	 viewBox="0 0 288 560" style="enable-background:new 0 0 288 560;" xml:space="preserve">
<style type="text/css">
	.st0{fill:#FFFFFF;stroke:#FFFFFF;stroke-miterlimit:10;}
	.st1{stroke:#FFFFFF;stroke-miterlimit:10;}
	.st2{fill:none;stroke:#000000;stroke-width:9;stroke-miterlimit:10;}
	.st3{fill:none;stroke:#FFFFFF;stroke-miterlimit:10;}
	.st4{fill:none;stroke:#FFFFFF;stroke-width:12;stroke-miterlimit:10;}
	.st5{stroke:#FFFFFF;stroke-width:12;stroke-miterlimit:10;}
</style>
<g>
	<g>
		<path class="st0" d="M-201.3,92.1c3.1,0,6.2,0,9.3,0c0,66,0,132,0,198c-65.9,0-131.9,0-197.9,0c0-66,0-132,0-198
			c3.2,0,6.4,0,9.6,0c-1.6,1-3.5,1.7-4.7,3.1c-2.9,3.1-2.6,7.1,0.4,11.3c20.9,29.5,41.9,59.1,62.9,88.5c3.1,4.4,4.8,9,4.5,14.4
			c-0.1,2.2,0,4.5,0,6.8c0,21.3,0,42.6,0,63.9c0,2.8,0.4,5.4,2.6,7.4c2.9,2.7,6.1,2.8,9.7,1.4c11.5-4.4,23-8.8,34.5-13.2
			c4.9-1.9,6.4-4,6.4-9.3c0-18.9,0.1-37.8,0-56.8c0-5.5,1.5-10.3,4.7-14.7c20.9-29.3,41.7-58.7,62.5-88.1c0.6-0.8,1.1-1.6,1.5-2.4
			c1.7-3.2,1.4-7-1.1-9.4C-197.8,93.7-199.7,93-201.3,92.1z"/>
		<path class="st1" d="M-201.3,92.1c1.6,0.9,3.4,1.6,4.7,2.8c2.6,2.5,2.9,6.2,1.1,9.4c-0.5,0.8-1,1.7-1.5,2.4
			c-20.8,29.4-41.6,58.8-62.5,88.1c-3.2,4.5-4.7,9.2-4.7,14.7c0.1,18.9,0,37.8,0,56.8c0,5.3-1.5,7.4-6.4,9.3
			c-11.5,4.4-23,8.8-34.5,13.2c-3.5,1.4-6.8,1.2-9.7-1.4c-2.2-2-2.6-4.6-2.6-7.4c0-21.3,0-42.6,0-63.9c0-2.3-0.1-4.5,0-6.8
			c0.3-5.4-1.4-10-4.5-14.4c-21-29.5-41.9-59-62.9-88.5c-2.9-4.1-3.2-8.2-0.4-11.3c1.2-1.3,3.1-2.1,4.7-3.1
			C-320.6,92.1-261,92.1-201.3,92.1z M-307.3,278.8c0.9-0.3,1.5-0.4,2.1-0.7c9.7-3.7,19.3-7.4,29-11c1.6-0.6,2.1-1.3,2.1-3
			c-0.1-18.3,0-36.7-0.1-55c0-7.3,2.1-13.8,6.3-19.8c20.2-28.4,40.4-56.8,60.5-85.2c0.4-0.6,0.8-1.1,1.2-1.9
			c-56.5,0-112.7,0-169.2,0c0.5,0.8,1,1.4,1.4,2.1c20.1,28.3,40.1,56.5,60.2,84.8c4.4,6.1,6.5,12.8,6.5,20.3c-0.1,22.3,0,44.6,0,67
			C-307.3,277.1-307.3,277.9-307.3,278.8z"/>
		<path class="st0" d="M-307.3,278.8c0-1,0-1.7,0-2.5c0-22.3-0.1-44.6,0-67c0-7.6-2.1-14.2-6.5-20.3c-20.1-28.2-40.1-56.5-60.2-84.8
			c-0.4-0.6-0.8-1.2-1.4-2.1c56.5,0,112.7,0,169.2,0c-0.5,0.7-0.8,1.3-1.2,1.9c-20.2,28.4-40.3,56.9-60.5,85.2
			c-4.3,6-6.4,12.5-6.3,19.8c0.1,18.3,0,36.7,0.1,55c0,1.7-0.5,2.4-2.1,3c-9.7,3.6-19.3,7.3-29,11
			C-305.8,278.4-306.4,278.6-307.3,278.8z"/>
	</g>
</g>
<line class="st2" x1="221.9" y1="122.5" x2="273.7" y2="122.5"/>
<line class="st2" x1="188.1" y1="172.8" x2="273.7" y2="172.8"/>
<line class="st2" x1="168.7" y1="228.6" x2="275" y2="228.6"/>
<line class="st3" x1="46" y1="102.2" x2="177" y2="102.2"/>
<line class="st4" x1="46" y1="122.5" x2="118" y2="213"/>
<line class="st4" x1="-279" y1="102.1" x2="-214" y2="102.1"/>
<line class="st4" x1="-252" y1="102.1" x2="-234" y2="102.1"/>
<line class="st5" x1="-67" y1="108" x2="-63" y2="108"/>
<line class="st4" x1="41" y1="66" x2="177" y2="66"/>
</svg>
